<?xml version="1.0" encoding="UTF-8" standalone="no"?>
<svg
   xmlns:dc="http://purl.org/dc/elements/1.1/"
   xmlns:cc="http://creativecommons.org/ns#"
   xmlns:rdf="http://www.w3.org/1999/02/22-rdf-syntax-ns#"
   xmlns:svg="http://www.w3.org/2000/svg"
   xmlns="http://www.w3.org/2000/svg"
   xmlns:sodipodi="http://sodipodi.sourceforge.net/DTD/sodipodi-0.dtd"
   xmlns:inkscape="http://www.inkscape.org/namespaces/inkscape"
   aria-hidden="true"
   focusable="false"
   data-prefix="fas"
   data-icon="angle-double-right"
   class="svg-inline--fa fa-angle-double-right fa-w-14"
   role="img"
   viewBox="0 0 398.60001 320.10001"
   version="1.1"
   id="svg4"
   sodipodi:docname="nestedquoteremover.svg"
   width="398.60001"
   height="320.10001"
   inkscape:version="0.92.5 (2060ec1f9f, 2020-04-08)">
  <metadata
     id="metadata10">
    <rdf:RDF>
      <cc:Work
         rdf:about="">
        <dc:format>image/svg+xml</dc:format>
        <dc:type
           rdf:resource="http://purl.org/dc/dcmitype/StillImage" />
      </cc:Work>
    </rdf:RDF>
  </metadata>
  <defs
     id="defs8" />
  <sodipodi:namedview
     pagecolor="#ffffff"
     bordercolor="#666666"
     borderopacity="1"
     objecttolerance="10"
     gridtolerance="10"
     guidetolerance="10"
     inkscape:pageopacity="0"
     inkscape:pageshadow="2"
     inkscape:window-width="813"
     inkscape:window-height="499"
     id="namedview6"
     showgrid="false"
     inkscape:zoom="0.4609375"
     inkscape:cx="199.25"
     inkscape:cy="160.05"
     inkscape:window-x="1125"
     inkscape:window-y="488"
     inkscape:window-maximized="0"
     inkscape:current-layer="svg4" />
  <path
     d="m 199.55,177.05 -136,136 c -9.4,9.4 -24.6,9.4 -33.9,0 l -22.6,-22.6 c -9.4,-9.4 -9.4,-24.6 0,-33.9 l 96.4,-96.4 -96.4,-96.4 c -9.4,-9.4 -9.4,-24.6 0,-33.9 l 22.5,-22.8 c 9.4,-9.4 24.6,-9.4 33.9,0 l 136,136 c 9.5,9.4 9.5,24.6 0.1,34 z m 192,-34 -136,-136 c -9.4,-9.4 -24.6,-9.4 -33.9,0 l -22.6,22.6 c -9.4,9.4 -9.4,24.6 0,33.9 l 96.4,96.4 -96.4,96.4 c -9.4,9.4 -9.4,24.6 0,33.9 l 22.6,22.6 c 9.4,9.4 24.6,9.4 33.9,0 l 136,-136 c 9.4,-9.2 9.4,-24.4 0,-33.8 z"
     id="path2"
     inkscape:connector-curvature="0"
     style="fill:currentColor" />
</svg>
